<svg xmlns="http://www.w3.org/2000/svg" xmlns:xlink="http://www.w3.org/1999/xlink" width="100%" height="100%" version="1.1" viewBox="0 0 250 250" xml:space="preserve" style="fill-rule:evenodd;clip-rule:evenodd;stroke-linejoin:round;stroke-miterlimit:2"><g transform="matrix(14.3138,0,0,14.3138,-52.1327,-45.8613)"><rect width="3" height="11" x="5" y="8" style="fill:#28537d"/></g><g><path d="M20,19L17,19L17,13.396C17,10.028 13,10.283 13,13.396L13,19L10,19L10,8L13,8L13,9.765C14.396,7.179 20,6.988 20,12.241L20,19Z" style="fill:#28537d" transform="matrix(14.3138,0,0,14.3138,-52.1327,-45.8613)"/></g><g><path d="M6.5,6.732C5.534,6.732 4.75,5.942 4.75,4.968C4.75,3.994 5.534,3.204 6.5,3.204C7.466,3.204 8.25,3.994 8.25,4.968C8.25,5.942 7.467,6.732 6.5,6.732Z" style="fill:#28537d" transform="matrix(14.3138,0,0,14.3138,-52.1327,-45.8613)"/></g></svg>